# xmcd
#
# Track frame offsets:
#        150
#        17277
#        29382
#        45195
#        65570
#        91002
#        110915
#        130152
#        147262
#        161892
#        176472
#        194255
#        219357
#
# Disc length: 3096 seconds
#
# Revision: 0
# Processed by: cddbd v1.5.1PL0 Copyright (c) Steve Scherf et al.
# Submitted via: ExactAudioCopy v0.95a5
#
DISCID=aa0c160d
DTITLE=COOLS R.C. - THE CHANGELINGS -BORN BUSTERS AGAIN-
DYEAR=1994
DGENRE=Rock and Roll
TTITLE0=GREAT and REALLY and ROCK'IN' GIANT (THIS THEN IS TEXAS)
TTITLE1=BECAUSE YOU'RE HONEY
TTITLE2=RASCAL [J]
TTITLE3=CHINA DOLL
TTITLE4=GYPSY JELLY
TTITLE5=BUSTERS AGAIN
TTITLE6=CINDERELLA LIBERTY
TTITLE7=SUMMER LOVE
TTITLE8=ROCK'N ROLL MEMORY
TTITLE9=SON OF THE JINX
TTITLE10=DREAM DATE
TTITLE11=TELL ME WHY
TTITLE12=BE A GOOD BOY
EXTD=
EXTT0=
EXTT1=
EXTT2=
EXTT3=
EXTT4=
EXTT5=
EXTT6=
EXTT7=
EXTT8=
EXTT9=
EXTT10=
EXTT11=
EXTT12=
PLAYORDER=
